<svg width="47" height="47" viewBox="0 0 47 47" fill="none" xmlns="http://www.w3.org/2000/svg">
<g clip-path="url(#clip0_144_164)">
<path d="M13.1545 -6.24502C12.8882 -6.2083 12.5761 -5.80439 12.5761 -5.51982C12.5761 -5.10674 12.7689 -4.92314 13.6869 -4.4917L14.6048 -4.06025L13.797 -3.58291C9.64782 -1.13193 6.48083 3.1458 5.28747 7.8917C5.02126 8.93819 4.81012 10.3427 4.72751 11.637C4.63571 12.9405 4.85602 13.3169 5.64547 13.2159C6.10446 13.1608 6.21462 12.8579 6.32477 11.4442C6.69196 6.44131 8.92262 2.11768 12.7138 -0.920797C13.4207 -1.48076 14.614 -2.28857 14.6691 -2.24267C14.6875 -2.22431 14.5773 -1.9581 14.4213 -1.64599C14.0908 -0.994235 14.0632 -0.654586 14.3295 -0.314938C14.4763 -0.131344 14.5957 -0.0762663 14.8527 -0.0762663C15.0363 -0.0762663 15.2658 -0.140524 15.3576 -0.204782C15.4494 -0.278219 15.9084 -1.15029 16.3949 -2.15088C17.3037 -4.06943 17.3496 -4.23466 16.9916 -4.60185C16.8263 -4.77627 14.0357 -6.08896 13.5859 -6.21748C13.4574 -6.2542 13.2646 -6.26337 13.1545 -6.24502Z" fill="#009B67"/>
<path d="M30.082 -4.66593C29.779 -4.42726 29.7056 -4.08761 29.8892 -3.73878C29.9902 -3.52765 30.2105 -3.38077 30.7154 -3.1421C35.9111 -0.77374 39.739 4.33935 40.5285 9.9665L40.5927 10.4255L40.0236 9.90224C39.381 9.30556 39.0964 9.2413 38.6833 9.59931C38.4906 9.76454 38.4263 9.89306 38.4263 10.1501C38.4263 10.4622 38.5273 10.5907 39.7941 11.8575C41.6392 13.7026 41.4372 13.7026 43.2548 11.8759C44.5216 10.6091 44.6134 10.4989 44.6134 10.1776C44.6134 9.72782 44.2829 9.37899 43.8699 9.37899C43.6404 9.37899 43.4568 9.50751 42.906 10.0308C42.1349 10.7835 42.2451 10.8661 41.9972 9.2872C41.2261 4.44032 38.2611 -0.17706 34.0843 -3.02276C32.946 -3.79386 30.9173 -4.84952 30.5593 -4.84952C30.4308 -4.84952 30.2105 -4.7669 30.082 -4.66593Z" fill="#009B67"/>
<path d="M19.3966 -0.672901C18.653 -0.470948 18.1849 -0.195558 17.6249 0.373583C17.0007 0.997802 16.6519 1.6771 16.5234 2.54917C16.4591 2.9439 16.4316 4.22905 16.4499 5.76206C16.4775 8.62612 16.5142 8.80972 17.1751 9.46147C17.8452 10.1316 17.6157 10.1132 23.4999 10.1132C28.4202 10.1132 28.8058 10.0949 29.1454 9.93882C29.632 9.71851 30.0909 9.25034 30.3296 8.73628C30.5132 8.34155 30.5224 8.16714 30.5224 5.38569C30.5224 2.07183 30.4857 1.83315 29.8614 0.933544C29.1271 -0.103761 28.0255 -0.737159 26.8964 -0.746339C26.4282 -0.755518 26.1253 -0.691261 25.4736 -0.443409C24.6933 -0.149659 24.5831 -0.1313 23.4999 -0.1313C22.4259 -0.1313 22.2974 -0.149659 21.5263 -0.43423C20.5532 -0.801417 20.0484 -0.856495 19.3966 -0.672901Z" fill="#009B67"/>
<path d="M5.59992 15.0978C4.14035 15.5935 2.95617 16.8236 2.53391 18.274C2.35949 18.8798 2.34113 20.0915 2.51555 20.7158C3.15813 23.1208 5.6091 24.6538 8.005 24.149C9.71242 23.791 11.2913 22.212 11.6493 20.5046C12.1542 18.1087 10.6212 15.6578 8.21613 15.0152C7.49094 14.8132 6.29758 14.8591 5.59992 15.0978Z" fill="#009B67"/>
<path d="M38.7386 15.0152C36.3702 15.6761 34.8556 18.1271 35.3513 20.5046C35.7093 22.212 37.2882 23.791 38.9956 24.149C41.3915 24.6538 43.8425 23.1208 44.4851 20.7158C44.6503 20.1007 44.6503 18.9992 44.4759 18.329C44.0812 16.8144 42.6859 15.4191 41.1712 15.0244C40.5286 14.8591 39.3169 14.8591 38.7386 15.0152Z" fill="#009B67"/>
<path d="M2.79079 25.2139C1.8361 25.5168 0.991569 26.1961 0.514225 27.0498C0.0460613 27.9035 -0.00901691 28.39 0.0185222 31.4928C0.0460612 34.1732 0.0552409 34.3201 0.248014 34.6689C0.477507 35.1004 0.927311 35.541 1.37712 35.7797C1.68005 35.9449 2.02887 35.9541 6.83903 35.9816C12.3836 36.0092 12.4754 36 13.1271 35.5318C14.0451 34.8617 14.1736 34.2559 14.1093 30.7859C14.0634 28.0687 14.0267 27.7934 13.5494 26.9855C13.2832 26.5266 12.5763 25.8197 12.1173 25.5627C11.2361 25.067 10.1804 24.9385 9.49196 25.2506C8.09665 25.884 5.76501 25.8656 4.50739 25.223C4.17692 25.0486 3.32321 25.0486 2.79079 25.2139Z" fill="#009B67"/>
<path d="M35.6172 25.2414C34.3595 25.7096 33.4783 26.6 33.0836 27.7934C32.8816 28.3809 32.7898 33.0166 32.9459 33.9437C33.0744 34.6598 33.3681 35.1646 33.873 35.5318C34.5248 36 34.6166 36.0092 40.1611 35.9816C44.9713 35.9541 45.3201 35.9449 45.623 35.7797C46.0728 35.541 46.5226 35.1004 46.7521 34.6689C46.9449 34.3201 46.9541 34.1732 46.9816 31.4928C47.0091 28.39 46.9541 27.9035 46.4859 27.0498C46.1738 26.4898 45.4578 25.783 44.9621 25.526C44.0808 25.0762 43.0252 24.9477 42.4927 25.223C41.2351 25.8656 38.9035 25.884 37.5082 25.2506C37.04 25.0394 36.1771 25.0303 35.6172 25.2414Z" fill="#009B67"/>
<path d="M18.4053 27.6832C17.8545 27.8576 17.0926 28.0779 16.7254 28.1881C15.6606 28.5093 15.4862 28.8765 15.936 29.7853C16.8999 31.7222 17.4782 32.6861 17.7169 32.7871C18.0106 32.9064 18.3778 32.833 18.5706 32.6218C18.8643 32.3006 18.8368 32.0343 18.4604 31.2633L18.1024 30.5105L18.7542 30.6849C19.7823 30.9603 21.5081 31.2082 22.7657 31.2816C25.0698 31.4009 27.9338 30.9236 30.2838 30.024C30.6969 29.8679 31.0917 29.6568 31.1651 29.5467C31.468 29.1152 31.2293 28.4543 30.7245 28.3349C30.5959 28.2982 30.2012 28.39 29.7606 28.5552C28.301 29.0877 26.8231 29.4365 25.3635 29.6109C24.4639 29.7211 22.0864 29.6752 21.1592 29.5375C19.8006 29.3263 19.0938 29.1519 19.3233 29.0693C19.9108 28.8582 20.0393 28.7939 20.1954 28.5828C20.434 28.2799 20.4249 27.9861 20.177 27.7015C19.8649 27.3435 19.5344 27.3435 18.4053 27.6832Z" fill="#009B67"/>
</g>
<defs>
<clipPath id="clip0_144_164">
<rect width="47" height="47" fill="white"/>
</clipPath>
</defs>
</svg>
