<svg width="42" height="40" viewBox="0 0 42 40" fill="none" xmlns="http://www.w3.org/2000/svg">
<path d="M19.9031 0.209445C19.275 0.29382 19.0687 0.48132 19.0031 1.07195C18.8812 2.05632 18.2437 2.79695 17.3156 3.05007C16.9312 3.1532 16.7906 3.14382 16.2844 3.00319C15.2344 2.7032 15.3094 2.69382 14.9531 3.0782C14.5125 3.54695 13.8375 4.93445 13.9125 5.22507C13.9406 5.34694 14.175 5.60007 14.4281 5.7782C15.0281 6.21882 15.3281 6.80945 15.3187 7.5782C15.3187 8.28132 15.0656 8.79695 14.4844 9.2657C14.25 9.46257 14.0344 9.7157 14.0062 9.83757C13.9406 10.1001 14.5875 11.3844 15.0375 11.8719C15.4031 12.2751 15.6375 12.3032 16.2281 12.0313C16.9875 11.6938 17.8125 11.8157 18.4687 12.3782C18.8906 12.7438 19.2094 13.3251 19.2187 13.7376C19.2187 14.4876 19.6687 14.7032 21.0656 14.6376C22.2094 14.5719 22.3406 14.4876 22.4812 13.6719C22.65 12.6313 23.2406 11.9657 24.1875 11.7594C24.6187 11.6657 24.9844 11.7126 25.6031 11.9376C25.7906 12.0032 26.0437 12.0313 26.175 12.0032C26.4469 11.9282 27.0562 11.0563 27.3844 10.2688C27.6375 9.65007 27.5812 9.44382 27.0094 9.01257C26.4375 8.5907 26.1094 7.93445 26.1187 7.25945C26.1187 6.59382 26.3625 6.12507 26.9906 5.54382C27.3 5.25319 27.4687 5.0282 27.4687 4.88757C27.4687 4.6532 26.8594 3.48132 26.475 2.97507C26.1469 2.55319 25.8844 2.49695 25.3125 2.74069C24.4594 3.10632 23.4562 2.93757 22.8375 2.31882C22.5 1.98132 22.2281 1.39069 22.2187 0.996945C22.2187 0.81882 22.1344 0.603195 22.0125 0.46257C21.825 0.25632 21.7031 0.21882 21.0937 0.18132C20.7094 0.16257 20.175 0.171945 19.9031 0.209445ZM21.6562 4.7282C22.2656 4.9157 22.8844 5.45944 23.2219 6.11569C23.4844 6.61257 23.5312 6.80945 23.5312 7.33445C23.5312 8.15007 23.325 8.73132 22.8656 9.25632C22.0312 10.2032 20.6062 10.4938 19.4812 9.9407C17.7937 9.1157 17.3719 6.80945 18.6562 5.4782C19.4719 4.64382 20.5031 4.38132 21.6562 4.7282Z" fill="#009B67"/>
<path d="M5.26918 7.17498C5.1848 7.25936 5.15668 8.33748 5.15668 11.45V15.6125L4.82855 15.3219C4.46293 15.0031 4.33168 14.975 4.10668 15.1437C3.7598 15.4344 3.81605 15.5937 4.61293 16.4C5.60668 17.4219 5.64418 17.4219 6.60043 16.4375C7.3973 15.6219 7.4723 15.3875 7.01293 15.125C6.76918 14.9937 6.74105 15.0031 6.4223 15.3125L6.09418 15.6312V11.8156V7.99998H9.32855C12.4411 7.99998 12.5723 7.99061 12.7504 7.81248C12.9754 7.58748 12.9848 7.40936 12.7879 7.21248C12.6661 7.08123 12.1879 7.06248 9.0098 7.06248C6.3098 7.06248 5.35355 7.09061 5.26918 7.17498Z" fill="#009B67"/>
<path d="M28.6504 7.25937C28.5754 7.37187 28.5379 7.53125 28.566 7.61562C28.6972 7.99062 28.8004 8 32.1285 8H35.3441V11.7594V15.5094L35.016 15.2656C34.6597 14.9937 34.3785 15.0125 34.2097 15.3219C34.0597 15.6125 34.1722 15.8 34.9129 16.5219C35.3816 16.9719 35.6816 17.1875 35.8316 17.1875C35.991 17.1875 36.2816 16.9625 36.8254 16.4C37.2472 15.9688 37.5941 15.5656 37.5941 15.5094C37.5941 15.3594 37.2472 15.0312 37.0785 15.0312C37.0035 15.0312 36.7972 15.1625 36.6097 15.3219L36.2816 15.6125V11.45C36.2816 8.3375 36.2535 7.25937 36.1691 7.175C36.0847 7.09062 35.1285 7.0625 32.4285 7.0625C28.8285 7.0625 28.791 7.0625 28.6504 7.25937Z" fill="#009B67"/>
<path d="M7.71563 21.1718C6.95625 21.3781 6.47813 21.6593 5.90625 22.2406C4.32188 23.8249 4.32188 26.2999 5.89688 27.8843C7.44375 29.4312 9.8625 29.4781 11.4469 27.9968C12.3188 27.1812 12.75 26.2249 12.75 25.0718C12.75 22.4187 10.2563 20.4874 7.71563 21.1718Z" fill="#009B67"/>
<path d="M32.3159 21.1343C31.0315 21.4343 29.8222 22.5593 29.4378 23.8155C28.1909 27.8468 33.1222 30.8562 36.1034 27.8843C37.6409 26.3374 37.6784 23.9468 36.1878 22.3155C35.2503 21.2937 33.6847 20.8155 32.3159 21.1343Z" fill="#009B67"/>
<path d="M20.0907 23C19.3219 23.1125 18.4313 23.5813 17.8594 24.1625C15.9282 26.15 16.5188 29.4125 19.0219 30.6125C19.5469 30.8656 19.7719 30.9219 20.4938 30.95C21.5532 30.9969 22.1532 30.8375 22.9594 30.3031C24 29.6094 24.6282 28.5313 24.7219 27.2656C24.9188 24.6969 22.65 22.6063 20.0907 23Z" fill="#009B67"/>
<path d="M7.24707 29.7969C4.97832 30.2094 2.90645 31.5594 1.6502 33.4438C0.89082 34.5875 0.393945 35.9656 0.23457 37.3156L0.168945 37.9062H6.01895H11.8689L12.0377 37.3625C12.2439 36.7156 12.8064 35.5531 13.2283 34.9344C13.3971 34.6906 13.9221 34.0906 14.4096 33.6125L15.2908 32.7406L15.0377 32.4406C14.6252 31.9438 13.6783 31.1844 12.9658 30.7813C11.2783 29.8063 9.16895 29.45 7.24707 29.7969Z" fill="#009B67"/>
<path d="M31.8848 29.7594C31.1254 29.8906 29.7379 30.3781 29.091 30.7437C28.3598 31.1469 27.7598 31.625 27.0285 32.375L26.4473 32.975L27.2629 33.8281C28.2191 34.8312 28.9035 35.9375 29.2973 37.0906L29.5785 37.9062H35.7004H41.8316L41.766 37.3156C41.3629 33.7719 38.8035 30.8094 35.391 29.9281C34.5285 29.7031 32.6723 29.6187 31.8848 29.7594Z" fill="#009B67"/>
<path d="M19.8284 31.625C15.8628 32.0469 12.619 35.2906 12.2253 39.2094L12.1597 39.875H20.719H29.2784L29.2222 39.2563C29.0253 37.1844 27.844 34.925 26.2597 33.6031C24.4503 32.1031 22.1065 31.3813 19.8284 31.625Z" fill="#009B67"/>
</svg>
