<svg width="48" height="48" viewBox="0 0 48 48" fill="none" xmlns="http://www.w3.org/2000/svg">
<g clip-path="url(#clip0_144_178)">
<path d="M23.5596 -6.41875C23.4565 -6.29688 23.0627 -5.55625 22.6877 -4.77813C22.0502 -3.44688 21.9846 -3.34375 21.7127 -3.29688C21.5534 -3.26875 20.794 -3.16563 20.0159 -3.0625C18.7409 -2.89375 18.5909 -2.85625 18.4034 -2.64063C18.019 -2.2 18.094 -2.06875 19.4721 -0.75625L20.7565 0.471875L20.4471 2.1875L20.1377 3.89375L20.3159 4.14687C20.6346 4.56875 20.8784 4.52188 22.5096 3.65L24.0096 2.84375L25.4815 3.64062C26.2971 4.08125 27.0659 4.4375 27.1971 4.4375C27.3284 4.4375 27.5346 4.33437 27.6565 4.20312L27.8721 3.96875L27.5627 2.225L27.244 0.48125L28.5284 -0.746875C29.9065 -2.06875 29.9815 -2.20938 29.6065 -2.63125C29.4096 -2.84688 29.2502 -2.88438 27.9377 -3.0625C27.1409 -3.16563 26.3721 -3.27813 26.2409 -3.30625C26.0346 -3.34375 25.894 -3.55938 25.3127 -4.77813C24.5534 -6.3625 24.3659 -6.625 24.0002 -6.625C23.8596 -6.625 23.6627 -6.53125 23.5596 -6.41875Z" fill="#009B67"/>
<path d="M7.55647 0.425056C7.48147 0.54693 7.11584 1.2688 6.74084 2.02818C6.36584 2.79693 6.01897 3.4438 5.96272 3.46255C5.90647 3.4813 5.11897 3.60318 4.21897 3.72505C2.80334 3.92193 2.55959 3.97818 2.41897 4.1563C2.08147 4.57818 2.17522 4.74693 3.52522 6.05943L4.80022 7.29693L4.50022 9.00318C4.20959 10.6157 4.20022 10.7282 4.35022 10.9532C4.65022 11.4126 4.84709 11.3657 6.46897 10.4938C7.29397 10.0532 8.00647 9.68755 8.05334 9.68755C8.09084 9.68755 8.81272 10.0532 9.65647 10.5032C10.969 11.2063 11.2033 11.3001 11.419 11.2251C11.9065 11.0563 11.9252 10.8219 11.6252 9.11568C11.4658 8.27193 11.344 7.50318 11.344 7.40943C11.344 7.31568 11.8783 6.72505 12.5252 6.09693C13.1815 5.4688 13.744 4.8688 13.7815 4.76568C13.8846 4.48443 13.7065 4.09068 13.4252 3.97818C13.2846 3.9313 12.469 3.79068 11.6065 3.67818L10.0502 3.47193L9.32834 1.96255C8.93459 1.13755 8.54084 0.39693 8.45647 0.331306C8.20334 0.13443 7.70647 0.190681 7.55647 0.425056Z" fill="#009B67"/>
<path d="M39.5442 0.331249C39.4598 0.396874 39.0661 1.1375 38.6723 1.9625L37.9504 3.47187L36.3942 3.67812C35.5317 3.79062 34.7161 3.93125 34.5754 3.97812C34.2661 4.1 34.0692 4.53125 34.2098 4.79375C34.2567 4.8875 34.8379 5.47812 35.4848 6.10625C36.3286 6.92188 36.6567 7.29687 36.6567 7.45625C36.6567 7.56875 36.5348 8.34687 36.3754 9.1625C36.0754 10.8125 36.0942 11.0562 36.5723 11.225C36.7786 11.2906 36.9661 11.2344 37.7442 10.8219C38.2598 10.5594 38.9723 10.1844 39.3379 10.0062L39.9942 9.65937L41.4942 10.475C42.3286 10.9156 43.0598 11.2812 43.1442 11.2812C43.3786 11.2812 43.7817 10.9062 43.7817 10.6906C43.7817 10.5781 43.6504 9.77187 43.4911 8.89062L43.2004 7.29687L44.4754 6.06875C45.8348 4.76562 45.9286 4.5875 45.5817 4.15625C45.4411 3.9875 45.1879 3.92187 43.6973 3.70625L41.9723 3.4625L41.2411 1.98125C40.8473 1.15625 40.4629 0.424999 40.4067 0.349999C40.2661 0.190624 39.7504 0.18125 39.5442 0.331249Z" fill="#009B67"/>
<path d="M22.7345 7.40948C19.2751 7.84073 16.2657 9.66886 14.3907 12.4907C12.5345 15.2845 11.972 18.5751 12.7876 21.8095C13.6782 25.3251 16.2376 28.2782 19.5657 29.647C22.0032 30.6501 25.0876 30.772 27.5438 29.9751C29.822 29.2251 31.8188 27.8095 33.2345 25.9157C37.2376 20.6001 35.9813 13.0532 30.4688 9.31261C29.6813 8.77823 28.1438 8.05636 27.2813 7.81261C25.8845 7.42823 23.9626 7.25011 22.7345 7.40948ZM25.5751 11.1407C28.0876 11.6657 30.0938 13.2407 31.172 15.547C31.6688 16.5876 31.8657 17.347 31.9407 18.5001C32.072 20.6845 31.3032 22.7751 29.7751 24.3782C28.7063 25.5126 27.4407 26.2626 25.922 26.6657C24.8626 26.947 23.1282 26.947 22.0782 26.6657C20.5595 26.2626 19.2938 25.5126 18.2251 24.3782C17.0907 23.197 16.3688 21.7251 16.1157 20.0939C15.9845 19.2595 16.0595 17.8626 16.2751 17.0001C16.4813 16.1657 17.1282 14.8251 17.6626 14.122C18.7688 12.6689 20.5313 11.5439 22.3313 11.1501C23.1282 10.972 24.7782 10.972 25.5751 11.1407Z" fill="#009B67"/>
<path d="M22.6409 12.5561C22.2847 12.6311 21.5815 12.8843 21.094 13.128C20.3534 13.4936 20.0722 13.6905 19.4065 14.3655C18.094 15.6874 17.5034 17.103 17.5034 18.9218C17.5034 20.0561 17.6815 20.8061 18.1878 21.828C18.9847 23.4499 20.2784 24.5655 22.0315 25.1561C22.8753 25.4374 24.5534 25.5124 25.4347 25.3061C27.844 24.7436 29.7003 22.9061 30.3472 20.4686C30.5534 19.6718 30.5534 18.1905 30.3472 17.3749C29.8409 15.4061 28.3503 13.6905 26.4565 12.8843C25.369 12.4249 23.8878 12.303 22.6409 12.5561ZM27.5347 16.7655C27.7972 16.953 27.8815 17.3186 27.7128 17.6374C27.4784 18.0686 22.9503 22.5124 22.6597 22.578C22.2378 22.6905 22.0128 22.4374 21.1597 20.9655C20.0909 19.1093 20.1003 19.1561 20.2878 18.7999C20.4565 18.4811 20.7659 18.3499 21.1409 18.4436C21.3097 18.4905 21.5159 18.753 21.9284 19.4655C22.2378 19.9905 22.5284 20.4874 22.5753 20.5624C22.6503 20.6749 23.0815 20.2905 24.7222 18.6593C26.4753 16.9249 26.8128 16.6249 27.0565 16.6249C27.2065 16.6249 27.4222 16.6905 27.5347 16.7655Z" fill="#009B67"/>
<path d="M13.0784 29.5344C12.4597 30.6031 11.8128 31.7281 11.6347 32.0375L11.3159 32.5906L11.7284 32.5344C11.9534 32.5062 12.6472 32.4125 13.2659 32.3187C13.8847 32.225 14.494 32.1781 14.6253 32.2156C14.7753 32.2531 15.1972 32.6844 15.7784 33.4062C16.2847 34.025 16.7253 34.5312 16.7722 34.5312C16.8472 34.5312 18.844 31.1 18.844 30.9594C18.844 30.9125 18.6003 30.7625 18.3097 30.6312C17.4378 30.2562 15.9472 29.2062 15.0847 28.3719C14.644 27.9406 14.2597 27.5937 14.2409 27.5937C14.2128 27.5937 13.6972 28.4656 13.0784 29.5344Z" fill="#009B67"/>
<path d="M33.1875 28.1281C32.1938 29.1406 30.825 30.1156 29.6531 30.6594C29.3813 30.7906 29.1562 30.9219 29.1562 30.9687C29.1562 31.0156 29.625 31.85 30.1969 32.8344L31.2375 34.625L32.1656 33.4812C32.6719 32.8531 33.1875 32.2812 33.3094 32.2156C33.4969 32.1219 33.7875 32.1406 34.9781 32.3375C35.7656 32.4594 36.4688 32.5531 36.5344 32.5437C36.6563 32.5156 33.9281 27.6687 33.7688 27.6219C33.7313 27.6125 33.4688 27.8375 33.1875 28.1281Z" fill="#009B67"/>
</g>
<defs>
<clipPath id="clip0_144_178">
<rect width="48" height="48" fill="white"/>
</clipPath>
</defs>
</svg>
