<svg width="32" height="28" viewBox="0 0 32 28" fill="none" xmlns="http://www.w3.org/2000/svg">
<path d="M16 0.504395C15.4096 0.504395 14.8251 0.620674 14.2796 0.846594C13.7342 1.07251 13.2386 1.40365 12.8212 1.8211C12.4038 2.23854 12.0726 2.73412 11.8467 3.27954C11.6208 3.82496 11.5045 4.40954 11.5045 4.99989C11.5045 5.59025 11.6208 6.17483 11.8467 6.72025C12.0726 7.26567 12.4038 7.76125 12.8212 8.17869C13.2386 8.59614 13.7342 8.92728 14.2796 9.1532C14.8251 9.37912 15.4096 9.49539 16 9.49539C17.1923 9.49539 18.3357 9.02176 19.1788 8.17869C20.0219 7.33562 20.4955 6.19217 20.4955 4.99989C20.4955 3.80761 20.0219 2.66417 19.1788 1.8211C18.3357 0.978026 17.1923 0.504395 16 0.504395ZM26.125 2.74989C25.2299 2.74989 24.3714 3.10547 23.7385 3.73841C23.1056 4.37134 22.75 5.22979 22.75 6.12489C22.75 7.02 23.1056 7.87844 23.7385 8.51138C24.3714 9.14432 25.2299 9.49989 26.125 9.49989C27.0201 9.49989 27.8786 9.14432 28.5115 8.51138C29.1444 7.87844 29.5 7.02 29.5 6.12489C29.5 5.22979 29.1444 4.37134 28.5115 3.73841C27.8786 3.10547 27.0201 2.74989 26.125 2.74989ZM5.875 2.74989C4.9799 2.74989 4.12145 3.10547 3.48851 3.73841C2.85558 4.37134 2.5 5.22979 2.5 6.12489C2.5 7.02 2.85558 7.87844 3.48851 8.51138C4.12145 9.14432 4.9799 9.49989 5.875 9.49989C6.77011 9.49989 7.62855 9.14432 8.26149 8.51138C8.89442 7.87844 9.25 7.02 9.25 6.12489C9.25 5.22979 8.89442 4.37134 8.26149 3.73841C7.62855 3.10547 6.77011 2.74989 5.875 2.74989ZM9.25 13.9841C9.25416 13.3901 9.49305 12.8219 9.91455 12.4033C10.3361 11.9848 10.906 11.7499 11.5 11.7499H20.5C21.0967 11.7499 21.669 11.9869 22.091 12.4089C22.5129 12.8309 22.75 13.4032 22.75 13.9999V20.7499C22.7498 21.458 22.639 22.1618 22.4215 22.8356C21.9233 24.3627 20.897 25.6622 19.5269 26.5007C18.1568 27.3391 16.5327 27.6617 14.9462 27.4105C13.3596 27.1593 11.9146 26.3507 10.8706 25.1299C9.82664 23.9092 9.25203 22.3562 9.25 20.7499V13.9841ZM7 13.9999C7 13.1786 7.21825 12.4114 7.603 11.7499H2.5C1.90326 11.7499 1.33097 11.9869 0.90901 12.4089C0.487053 12.8309 0.25 13.4032 0.25 13.9999V19.6249C0.249694 20.5458 0.475509 21.4528 0.907614 22.266C1.33972 23.0793 1.9649 23.774 2.72825 24.2892C3.49159 24.8044 4.36976 25.1243 5.28563 25.2208C6.20149 25.3173 7.12705 25.1874 7.981 24.8426C7.3334 23.5749 6.99712 22.1712 7 20.7476V13.9999ZM25 13.9999V20.7499C25 22.2236 24.6467 23.6141 24.019 24.8426C24.873 25.1874 25.7985 25.3173 26.7144 25.2208C27.6302 25.1243 28.5084 24.8044 29.2718 24.2892C30.0351 23.774 30.6603 23.0793 31.0924 22.266C31.5245 21.4528 31.7503 20.5458 31.75 19.6249V13.9999C31.75 13.4032 31.5129 12.8309 31.091 12.4089C30.669 11.9869 30.0967 11.7499 29.5 11.7499H24.397C24.7795 12.4114 25 13.1786 25 13.9999Z" fill="#009B67"/>
</svg>
